<?xml version="1.0" encoding="utf-8"?>
<!-- Generator: Adobe Illustrator 25.2.0, SVG Export Plug-In . SVG Version: 6.00 Build 0)  -->
<svg version="1.1" id="Layer_1" xmlns="http://www.w3.org/2000/svg" xmlns:xlink="http://www.w3.org/1999/xlink" x="0px" y="0px"
	 viewBox="0 0 300 300" style="enable-background:new 0 0 300 300;" xml:space="preserve">
<style type="text/css">
	.st0{fill:#FFFFFF;}
</style>
<polygon class="st0" points="22.6,186.3 21.9,183.6 5.8,187.7 6.4,190.1 10.5,193.5 12.3,191.7 9.7,189.6 "/>
<path class="st0" d="M10.5,172.4c-0.7-0.5-1.7-0.4-2.3,0.3C8,173,7.9,173.4,8,173.8c0.1,0.4,0.3,0.8,0.6,1c0.3,0.2,0.8,0.3,1.2,0.3
	c0.4-0.1,0.8-0.2,1.1-0.5c0.3-0.3,0.4-0.8,0.3-1.1C11.1,173,10.9,172.6,10.5,172.4z"/>
<path class="st0" d="M49,237.9l-5.5,4.3c-0.6,0.5-1.3,0.8-2.1,1c-0.6,0.1-1.2-0.1-1.6-0.5c-0.2-0.2-0.3-0.4-0.3-0.7s0.1-0.5,0.2-0.7
	c0.2-0.3,0.3-0.5,0.5-0.7c0.2-0.2,0.4-0.4,0.7-0.6l5.9-4.6l-1.6-2.1l-5.5,4.3c-0.6,0.5-1.3,0.8-2.1,1c-0.6,0.1-1.2-0.1-1.6-0.6
	c-0.2-0.2-0.3-0.5-0.3-0.8c0-0.3,0.1-0.5,0.2-0.7c0.2-0.3,0.3-0.5,0.5-0.7c0.2-0.2,0.4-0.4,0.7-0.6l5.9-4.6l-1.6-2.1l-5.9,4.6
	c-0.5,0.4-1,0.8-1.4,1.2c-0.4,0.4-0.7,0.8-1,1.3c-0.2,0.4-0.3,0.9-0.3,1.4c0.1,0.5,0.3,1.1,0.7,1.5c0.2,0.3,0.5,0.6,0.9,0.8
	c0.3,0.2,0.7,0.3,1,0.4c0.3,0.1,0.7,0.1,1,0.1c0.3,0,0.6-0.1,0.9-0.2v0.1c-0.2,0.3-0.3,0.5-0.4,0.8c-0.1,0.3-0.2,0.6-0.3,0.9
	c-0.1,0.3,0,0.7,0.1,0.9c0.1,0.4,0.3,0.7,0.5,1c0.4,0.5,1,1,1.7,1.1c0.7,0.1,1.3,0.1,1.9-0.2v0.1l-1.5,1.1l1.6,2.1l9.4-7.3L49,237.9
	z"/>
<path class="st0" d="M19.3,171.2c-0.3-0.3-0.8-0.3-1.2-0.3s-0.8,0.2-1.1,0.5c-0.5,0.6-0.5,1.5,0.2,2.1c0.1,0.1,0.1,0.1,0.2,0.1
	c0.7,0.4,1.7,0.3,2.3-0.3c0.3-0.3,0.4-0.8,0.3-1.1C19.8,171.8,19.6,171.4,19.3,171.2z"/>
<rect x="21" y="199.9" transform="matrix(0.928 -0.3725 0.3725 0.928 -74.6961 22.9652)" class="st0" width="2.1" height="9.7"/>
<path class="st0" d="M38.4,223.5l-6.1,3.4c-0.7,0.4-1.4,0.7-2.2,0.7c-0.6,0.1-1.1-0.3-1.5-0.8c-0.2-0.2-0.2-0.5-0.2-0.8
	s0.2-0.5,0.3-0.7c0.2-0.2,0.4-0.4,0.6-0.6c0.3-0.2,0.5-0.3,0.8-0.5l6.5-3.7l-1.3-2.3l-6.1,3.4c-0.7,0.4-1.4,0.7-2.2,0.7
	c-0.6,0.1-1.2-0.3-1.5-0.8c-0.2-0.2-0.2-0.5-0.2-0.8s0.2-0.5,0.3-0.7c0.2-0.2,0.4-0.4,0.7-0.6s0.5-0.3,0.8-0.5l6.5-3.7l-1.3-2.3
	l-6.5,3.7c-0.5,0.3-1,0.7-1.5,1c-0.4,0.3-0.8,0.7-1.1,1.1c-0.3,0.4-0.4,0.9-0.5,1.4c0,0.5,0.1,1.1,0.4,1.6c0.2,0.3,0.4,0.7,0.8,0.9
	c0.3,0.2,0.6,0.4,0.9,0.5s0.7,0.2,1,0.2c0.3,0,0.6,0,0.9-0.1v0.1c-0.2,0.2-0.4,0.5-0.5,0.7c-0.2,0.3-0.3,0.5-0.4,0.8
	s-0.1,0.7-0.1,0.9c0.1,0.4,0.2,0.7,0.4,1c0.3,0.6,0.9,1.1,1.5,1.3c0.6,0.2,1.3,0.2,1.9,0.1v0.1l-1.6,0.9l1.3,2.3l10.4-5.9
	L38.4,223.5z"/>
<path class="st0" d="M15.5,94c0.5,0.4,1,0.7,1.5,0.9l1.6,0.7L17.9,97l1.9,0.9l0.7-1.4l9,4.1l1.1-2.3l-9-4.1l0.8-1.7l-2-0.9l-0.8,1.7
	l-1.5-0.7c-0.3-0.1-0.5-0.3-0.8-0.4c-0.2-0.1-0.4-0.3-0.6-0.5c-0.2-0.2-0.3-0.4-0.3-0.6c-0.1-0.3,0-0.5,0.1-0.8
	c0.1-0.2,0.2-0.4,0.4-0.6l-1.9-1c-0.2,0.2-0.3,0.3-0.4,0.5c-0.1,0.2-0.2,0.4-0.3,0.5C14,90.2,14,90.7,14,91.3c0,0.5,0.2,1,0.4,1.4
	C14.7,93.3,15,93.7,15.5,94z"/>
<path class="st0" d="M9.8,136.8c0.3,0.5,0.6,1,1.1,1.4c0.4,0.4,1,0.6,1.5,0.8c0.5,0.1,1.1,0.1,1.7-0.1c0.6-0.2,1.1-0.5,1.5-0.9
	c0.5-0.5,0.9-1,1.3-1.7c0.4-0.8,0.7-1.5,0.8-2.4c0.2-0.7,0.2-1.4,0.2-2.1c0-0.6-0.1-1.2-0.2-1.8c-0.1-0.5-0.3-1.1-0.5-1.6
	c-0.2-0.5-0.4-1.1-0.7-1.6c0.4-0.4,0.8-0.8,1.3-1.1c0.4-0.4,0.8-0.9,1.1-1.4c0.4-0.5,0.7-1,0.9-1.6c0.7-1.4,0.9-2.9,0.8-4.5
	c-0.1-0.7-0.2-1.4-0.5-2c-0.3-0.5-0.6-1-1.1-1.4c-0.9-0.8-2.1-1-3.2-0.7c-0.6,0.2-1.1,0.5-1.5,0.9c-0.5,0.5-0.9,1-1.3,1.6
	c-0.4,0.8-0.7,1.5-0.8,2.3c-0.2,0.7-0.2,1.4-0.2,2.1c0,0.7,0.1,1.3,0.3,1.9c0.1,0.6,0.3,1.1,0.5,1.7c0.2,0.5,0.5,1.1,0.7,1.6
	c-0.4,0.4-0.9,0.8-1.3,1.2c-0.9,0.9-1.6,1.9-2.2,3c-0.3,0.7-0.5,1.3-0.7,2c-0.2,0.8-0.2,1.6-0.2,2.5C9.3,135.4,9.5,136.2,9.8,136.8z
	 M14.5,119.4c0.1-0.7,0.4-1.4,1-1.9c0.4-0.4,1-0.5,1.6-0.4c0.5,0.1,1,0.5,1.2,1c0.3,0.7,0.3,1.4,0.1,2.1c-0.1,0.5-0.3,0.9-0.5,1.4
	c-0.2,0.4-0.4,0.8-0.7,1.1c-0.3,0.3-0.5,0.7-0.8,1c-0.3,0.3-0.6,0.6-0.9,0.8c-0.2-0.3-0.3-0.7-0.4-1.1c-0.2-0.4-0.3-0.8-0.4-1.3
	c-0.1-0.4-0.2-0.9-0.2-1.4C14.4,120.3,14.4,119.8,14.5,119.4L14.5,119.4z M11.7,132.8c0.1-0.4,0.3-0.9,0.5-1.3
	c0.2-0.4,0.5-0.8,0.8-1.2s0.6-0.7,0.9-1c0.3-0.3,0.6-0.6,0.8-0.8c0.2,0.3,0.3,0.7,0.4,1.1c0.2,0.4,0.3,0.8,0.4,1.3
	c0.1,0.4,0.2,0.9,0.2,1.4c0,0.4,0,0.9-0.1,1.4c-0.1,0.7-0.4,1.4-0.9,1.9c-0.4,0.4-1,0.6-1.5,0.4c-0.5-0.1-1-0.5-1.2-1
	C11.6,134.2,11.5,133.5,11.7,132.8L11.7,132.8z"/>
<path class="st0" d="M6.2,146.2c0.9,0.3,1.9,0.5,2.8,0.8c0.9,0.2,1.9,0.3,2.8,0.4c0.9,0.1,1.9,0.1,2.8,0c1-0.1,1.9-0.2,2.8-0.3
	c0.9-0.2,1.9-0.4,2.7-0.7c0.9-0.3,1.7-0.7,2.5-1l-0.7-1.9c-0.8,0.4-1.5,0.7-2.3,0.9c-0.8,0.3-1.7,0.5-2.5,0.6
	c-0.9,0.2-1.7,0.3-2.6,0.3c-0.9,0.1-1.7,0.1-2.6,0c-1.7-0.1-3.5-0.5-5.2-1c-0.8-0.3-1.6-0.6-2.4-1c-0.8-0.3-1.5-0.8-2.2-1.3l-1,1.7
	c0.8,0.5,1.5,1,2.3,1.4C4.4,145.6,5.3,145.9,6.2,146.2z"/>
<polygon class="st0" points="21.9,167.7 24,167.5 23.4,153.4 21,153.6 21.5,164.2 11.7,157.8 2.8,164.7 2.4,154.7 0,154.8 
	0.6,168.3 2.6,168.2 11.9,160.9 "/>
<path class="st0" d="M11.9,105.9c0.9,0,1.7,0,2.6,0.1c1.7,0.2,3.5,0.5,5.1,1.1c0.8,0.3,1.6,0.7,2.4,1c1.6,0.8,3.1,1.8,4.4,2.9
	c0.7,0.5,1.2,1.1,1.7,1.7l1.4-1.4c-0.5-0.7-1.2-1.4-1.9-2c-0.7-0.7-1.4-1.2-2.2-1.7c-0.8-0.5-1.6-1-2.5-1.5
	c-0.9-0.5-1.7-0.8-2.6-1.1c-0.9-0.3-1.8-0.6-2.7-0.8s-1.9-0.3-2.8-0.4c-0.9-0.1-1.9-0.1-2.8-0.1c-0.9,0.1-1.8,0.2-2.7,0.3l0.2,2
	C10.3,106.1,11.1,106,11.9,105.9z"/>
<path class="st0" d="M86.3,284.4c-0.5,0.2-1,0.2-1.5-0.1s-0.9-0.7-0.9-1.2c-0.1-0.6,0.1-1.2,0.3-1.7c0.3-0.5,0.7-1,1.1-1.3
	c0.5-0.4,1.2-0.8,1.8-1.1l7-3.3l1.1-2.3l-8-4l-1.1,2.2l5.1,2.6l-5.1,2.4c-0.5,0.2-1,0.5-1.4,0.7c-0.5,0.2-0.9,0.5-1.3,0.8
	c-0.4,0.3-0.8,0.6-1.1,0.9c-0.3,0.4-0.6,0.8-0.9,1.3c-0.3,0.5-0.5,1.2-0.6,1.8c-0.1,0.6-0.1,1.2,0.1,1.7s0.4,1.1,0.8,1.5
	c0.4,0.5,1,0.9,1.6,1.2c1,0.6,2.2,0.7,3.4,0.4c1.3-0.4,2.3-1.3,2.9-2.3l-2.2-1.4C87.3,283.7,86.9,284.1,86.3,284.4z"/>
<rect x="78.6" y="270.1" transform="matrix(0.5141 -0.8577 0.8577 0.5141 -194.7156 200.5397)" class="st0" width="2.1" height="4"/>
<path class="st0" d="M97.6,277l5.3,2.1l-4.8,2.8l-1.4,0.8c-0.4,0.3-0.8,0.5-1.2,0.9c-0.4,0.3-0.7,0.7-1,1c-0.3,0.4-0.5,0.8-0.8,1.3
	c-0.2,0.6-0.4,1.2-0.4,1.9c-0.1,0.6,0.1,1.1,0.3,1.7c0.2,0.5,0.5,1,0.9,1.4c0.5,0.4,1,0.8,1.6,1c1.1,0.5,2.3,0.5,3.4,0.1
	c1.2-0.5,2.2-1.4,2.8-2.6l-2.4-1.3c-0.3,0.6-0.8,1-1.3,1.4c-0.5,0.2-1,0.3-1.5,0.1c-0.5-0.2-0.9-0.6-1-1.1c-0.1-0.6-0.1-1.2,0.2-1.7
	c0.2-0.5,0.6-1,1-1.4c0.5-0.5,1.1-0.9,1.7-1.3l6.8-3.9l1-2.4l-8.3-3.3L97.6,277z"/>
<path class="st0" d="M51.9,253.2c-0.4-0.3-0.9-0.6-1.3-1c-0.5-0.5-0.8-1.3-0.8-2c0.1-0.8,0.5-1.6,1.2-2.2c0.5-0.6,1.3-1,2-1.1
	c0.7-0.2,1.3,0.1,1.7,0.5c0.4,0.4,0.5,0.9,0.5,1.4c0,0.5-0.2,1.1-0.4,1.6l2.2,1.2c0.6-0.9,0.9-2,0.8-3.2c-0.2-1.1-0.7-2.1-1.4-2.8
	c-0.4-0.5-1-0.9-1.6-1.1s-1.2-0.4-1.9-0.3c-0.7,0.1-1.4,0.2-2,0.5c-0.8,0.4-1.5,0.9-2,1.4c-0.5,0.5-1,1.1-1.3,1.7
	c-0.3,0.5-0.5,1.1-0.6,1.7c-0.1,0.6,0,1.2,0.2,1.7c0.2,0.6,0.6,1.1,1,1.6c0.2,0.2,0.4,0.3,0.6,0.5s0.4,0.3,0.7,0.4l-2.9,2.6
	l-3.7-3.8l-1.7,1.7l5.3,5.5l6.6-6C52.8,253.8,52.4,253.5,51.9,253.2z"/>
<path class="st0" d="M57.3,265.7c-0.5,0.1-1-0.1-1.4-0.4c-0.4-0.3-0.7-0.9-0.6-1.4c0.1-0.6,0.3-1.1,0.8-1.6c0.4-0.4,0.9-0.8,1.4-1
	c0.7-0.3,1.3-0.5,2-0.7l7.6-1.5l1.7-2l-6.8-5.8l-1.6,1.9l4.4,3.7l-5.5,1.1c-0.5,0.1-1,0.2-1.6,0.3c-0.5,0.1-1,0.3-1.4,0.4
	s-0.9,0.4-1.3,0.7c-0.4,0.3-0.8,0.6-1.1,1c-0.4,0.5-0.8,1-1,1.6c-0.2,0.5-0.3,1.1-0.3,1.7c0,0.6,0.2,1.1,0.4,1.6
	c0.3,0.6,0.7,1.1,1.2,1.5c0.9,0.8,2,1.3,3.2,1.3c1.3-0.1,2.5-0.7,3.4-1.6l-1.9-1.9C58.6,265.3,58,265.6,57.3,265.7z"/>
<polygon class="st0" points="73.1,260.3 63.5,273.9 65.6,275.4 70.9,275.2 71.1,272.7 67.7,272.8 75.3,261.9 "/>
<polygon class="st0" points="280.2,130.3 287.2,129.1 287.9,133.3 290.3,132.9 289.6,128.7 294.1,127.9 294.9,132.4 297.4,132 
	296.2,124.6 279.7,127.5 "/>
<path class="st0" d="M296.6,135.6c-0.4,0.1-0.8,0.2-1.1,0.5c-0.3,0.3-0.4,0.8-0.3,1.1c0.1,0.4,0.3,0.8,0.6,1
	c0.3,0.3,0.8,0.4,1.2,0.3c0.4-0.1,0.8-0.2,1.1-0.5c0.5-0.6,0.5-1.6-0.1-2.1c-0.1-0.1-0.1-0.1-0.1-0.1
	C297.5,135.7,297.1,135.6,296.6,135.6z"/>
<path class="st0" d="M261.6,93.7l6.4-3.3v0.1c-0.4,0.4-0.7,0.9-0.8,1.5c-0.1,0.6-0.1,1.3,0.3,1.8c0.3,0.5,0.7,1,1.2,1.3
	s1.1,0.4,1.7,0.5c0.7,0,1.5-0.1,2.1-0.3c0.8-0.2,1.6-0.5,2.4-1c0.8-0.4,1.5-0.9,2.1-1.4c0.5-0.4,1-1,1.5-1.6
	c0.3-0.5,0.5-1.1,0.7-1.7c0.1-0.6-0.1-1.2-0.3-1.7c-0.3-0.6-0.8-1-1.4-1.3c-0.5-0.2-1.1-0.2-1.7-0.1v-0.1l1.5-0.8l-1.2-2.3
	l-15.6,8.1L261.6,93.7z M269.1,91c0.1-0.3,0.3-0.7,0.5-1c0.3-0.3,0.6-0.7,1-0.9c0.9-0.7,1.8-1.1,2.8-1.5c0.4-0.2,0.9-0.2,1.3-0.3
	c0.4,0,0.7,0.1,1,0.2c0.3,0.1,0.5,0.3,0.7,0.6c0.2,0.3,0.2,0.6,0.1,0.9c-0.1,0.3-0.3,0.7-0.5,0.9c-0.3,0.3-0.6,0.7-1,0.9
	c-0.4,0.3-0.9,0.6-1.4,0.8c-0.5,0.3-1,0.4-1.5,0.7c-0.4,0.2-0.9,0.3-1.3,0.3c-0.4,0.1-0.7,0-1-0.2c-0.3-0.1-0.5-0.3-0.7-0.7
	C269,91.6,269,91.3,269.1,91L269.1,91z"/>
<path class="st0" d="M257.5,71.1c-0.8,0.5-1.4,1.2-1.7,2.1c-0.2,0.8,0.1,1.7,0.6,2.3c0.2,0.3,0.4,0.5,0.7,0.7
	c0.2,0.2,0.4,0.3,0.7,0.5l1.6-1.3c-0.1-0.1-0.2-0.1-0.3-0.2c-0.1-0.1-0.2-0.2-0.3-0.3c-0.2-0.3-0.3-0.7-0.2-1c0.2-0.4,0.5-0.8,1-1.1
	l5-3.7l1.3,1.7l1.6-1.2l-1.3-1.7l2.5-1.8l-1.5-2l-2.5,1.8l-0.9-1.2l-1.6,1.2l0.9,1.2L257.5,71.1z"/>
<rect x="232.6" y="38.3" transform="matrix(0.6036 -0.7973 0.7973 0.6036 58.193 203.4325)" class="st0" width="2.1" height="9.7"/>
<path class="st0" d="M263.9,75.1c-0.8,0.4-1.4,1-2,1.6c-0.5,0.5-0.9,1.1-1.2,1.9c-0.3,0.6-0.4,1.3-0.3,1.9c0.1,1.4,0.9,2.6,2.1,3.3
	c0.6,0.3,1.2,0.5,1.9,0.5c0.8,0.1,1.5-0.1,2.2-0.3c1.7-0.5,3.2-1.5,4.4-2.8c0.5-0.5,0.9-1.1,1.2-1.9c0.3-0.6,0.4-1.3,0.3-1.9
	c-0.1-1.4-0.9-2.6-2.1-3.3c-0.5-0.3-1.2-0.5-1.9-0.5c-0.8,0-1.5,0.1-2.2,0.3C265.5,74.2,264.7,74.7,263.9,75.1z M268,76.2
	c0.3-0.1,0.7-0.1,1,0.1c0.7,0.2,1,0.8,0.9,1.5c-0.1,0.3-0.2,0.7-0.4,1c-0.3,0.4-0.5,0.7-0.9,1c-0.4,0.3-0.8,0.7-1.3,1
	c-0.4,0.3-0.9,0.5-1.4,0.8c-0.4,0.2-0.8,0.3-1.3,0.4c-0.3,0.1-0.7,0.1-1-0.1s-0.6-0.3-0.8-0.6c-0.2-0.3-0.3-0.6-0.2-0.9
	c0.1-0.3,0.2-0.7,0.4-1c0.3-0.4,0.5-0.7,0.9-1c0.4-0.3,0.8-0.7,1.3-1c0.4-0.3,0.9-0.5,1.4-0.8C267.2,76.4,267.6,76.3,268,76.2
	L268,76.2z"/>
<path class="st0" d="M274,98.8c-0.9,0.3-1.6,0.9-2.1,1.6c-0.4,0.8-0.4,1.6,0.1,2.4c0.1,0.3,0.3,0.5,0.4,0.8c0.2,0.2,0.3,0.4,0.5,0.6
	l1.9-0.9c-0.1-0.1-0.2-0.2-0.3-0.3c-0.1-0.1-0.2-0.3-0.2-0.4c-0.2-0.3-0.2-0.7,0.1-1c0.3-0.4,0.8-0.7,1.2-0.8l5.7-2.5l0.8,1.9
	l1.9-0.8l-0.8-2l2.8-1.2l-1-2.3l-2.8,1.2l-0.6-1.4l-1.9,0.8l0.6,1.4L274,98.8z"/>
<path class="st0" d="M285,146.4c0.3-0.2,0.7-0.4,1.1-0.4c0.4-0.1,0.9-0.2,1.3-0.2l0.2,6.2h1c0.8,0,1.6-0.1,2.4-0.3
	c0.7-0.2,1.3-0.4,1.9-0.8c0.5-0.3,0.9-0.8,1.3-1.4c0.6-1.2,0.5-2.6-0.1-3.8c-0.3-0.5-0.8-1-1.4-1.4c-0.7-0.4-1.3-0.7-2.1-0.9
	c-0.9-0.2-1.7-0.3-2.6-0.3c-2.1,0.1-3.6,0.5-4.7,1.4c-1,0.8-1.6,2.1-1.5,3.4c0,0.9,0.3,1.7,0.8,2.4s1.3,1.1,2,1.4l1.1-2
	c-0.4-0.2-0.8-0.4-1.1-0.7s-0.5-0.7-0.5-1.1c0-0.3,0.1-0.7,0.2-0.9C284.5,146.8,284.8,146.6,285,146.4z M290.2,145.8
	c0.3,0.1,0.7,0.2,1,0.3s0.5,0.3,0.8,0.5c0.2,0.2,0.3,0.5,0.3,0.9c0.1,0.5-0.3,1.1-0.8,1.4c-0.7,0.3-1.4,0.5-2.2,0.5l-0.1-3.7
	C289.6,145.7,289.9,145.8,290.2,145.8z"/>
<path class="st0" d="M281.6,110.8c-0.8,0.2-1.6,0.5-2.4,1c-0.7,0.4-1.3,0.8-1.7,1.4c-0.4,0.5-0.7,1.1-0.9,1.7
	c-0.2,1.2,0.1,2.5,0.8,3.4c0.3,0.4,0.7,0.7,1.1,0.9l1.7-1.6c-0.3-0.1-0.5-0.3-0.7-0.4c-0.2-0.2-0.3-0.5-0.4-0.8
	c-0.2-0.7,0.1-1.4,0.6-1.8c0.8-0.6,1.6-1,2.6-1.3c0.9-0.3,1.9-0.4,2.9-0.3c0.7,0.1,1.3,0.5,1.5,1.1c0.1,0.3,0.1,0.5,0.1,0.9
	c-0.1,0.3-0.2,0.5-0.3,0.7l2.2,0.6c0.5-0.9,0.5-2,0.3-2.9c-0.2-0.7-0.5-1.3-1-1.7c-0.4-0.4-1-0.8-1.6-1c-0.7-0.2-1.4-0.3-2.2-0.3
	C283.3,110.5,282.4,110.6,281.6,110.8z"/>
<path class="st0" d="M288.1,104.4c0.4,0.2,0.9,0.2,1.3,0c0.4-0.2,0.8-0.4,1-0.8c0.4-0.7,0.1-1.6-0.6-2c-0.1,0-0.1-0.1-0.1-0.1
	c-0.8-0.3-1.7,0.1-2.2,0.8C287,103,287.3,103.9,288.1,104.4C288.1,104.3,288.1,104.3,288.1,104.4L288.1,104.4z"/>
<rect x="273.9" y="104.8" transform="matrix(0.9412 -0.3379 0.3379 0.9412 -19.3957 100.8195)" class="st0" width="12" height="2.7"/>
<rect x="281.4" y="136.9" transform="matrix(0.9942 -0.1073 0.1073 0.9942 -13.1725 31.6366)" class="st0" width="12" height="2.7"/>
<path class="st0" d="M261.4,240.2c0.1,0.4,0.1,0.8,0.1,1.3c-0.1,0.4-0.3,0.8-0.5,1.1c-0.3,0.4-0.7,0.7-1.2,0.7
	c-0.6-0.1-1.2-0.3-1.6-0.7l-0.3-0.2l0.4-0.5c0.4-0.4,0.7-0.9,1-1.5c0.3-0.5,0.4-1.1,0.5-1.6c0.1-0.6-0.1-1.2-0.3-1.7
	c-0.3-0.7-0.8-1.3-1.3-1.7c-0.4-0.4-0.9-0.7-1.5-0.8c-0.4-0.2-0.9-0.2-1.3-0.2c-0.4,0.1-0.8,0.2-1.1,0.4c-0.3,0.2-0.6,0.4-0.8,0.7
	c-0.4,0.5-0.7,1.1-0.7,1.7c0,0.6,0.2,1.2,0.6,1.7l-0.1,0.1l-1.4-1.1l-1.4,1.7l5.5,4.5c0.6,0.5,1.2,0.9,1.9,1.3
	c0.5,0.3,1.1,0.5,1.7,0.5c0.5,0.1,1.1-0.1,1.6-0.3c0.5-0.3,1.1-0.7,1.5-1.2c0.4-0.5,0.8-1.1,0.9-1.9c0.2-0.7,0.2-1.4,0.1-2.1
	L261.4,240.2z M257.3,239.8c-0.2,0.3-0.3,0.5-0.5,0.8l-0.5,0.6l-0.5-0.4c-0.3-0.2-0.5-0.5-0.8-0.8c-0.2-0.3-0.4-0.6-0.6-0.9
	c-0.2-0.3-0.2-0.6-0.2-1c0-0.3,0.1-0.7,0.3-0.9c0.2-0.2,0.6-0.4,0.9-0.4c0.5,0,1,0.2,1.4,0.5c0.3,0.2,0.5,0.5,0.7,0.8
	c0.1,0.3,0.2,0.5,0.2,0.8C257.5,239.2,257.4,239.5,257.3,239.8L257.3,239.8z"/>
<path class="st0" d="M272.3,203.9l6.3,2.9c0.7,0.3,1.4,0.8,1.8,1.4c0.4,0.4,0.5,1.1,0.2,1.6c-0.1,0.3-0.3,0.4-0.5,0.6
	c-0.2,0.1-0.5,0.2-0.7,0.2c-0.3,0-0.5-0.1-0.8-0.2c-0.3-0.1-0.5-0.2-0.8-0.3l-6.8-3.2l-1.1,2.4l6.3,2.9c0.7,0.3,1.4,0.8,1.9,1.4
	c0.4,0.5,0.4,1.1,0.2,1.7c-0.1,0.3-0.3,0.5-0.5,0.6s-0.5,0.2-0.7,0.2c-0.3,0-0.5-0.1-0.8-0.2c-0.3-0.1-0.5-0.2-0.8-0.3l-6.8-3.2
	l-1.1,2.4l6.8,3.2c0.5,0.3,1.1,0.5,1.7,0.7c0.5,0.2,1,0.3,1.6,0.3c1.1,0,2-0.7,2.4-1.6c0.2-0.4,0.3-0.8,0.3-1.1c0-0.3,0-0.7-0.1-1
	c-0.1-0.3-0.2-0.6-0.4-0.9c-0.2-0.3-0.4-0.5-0.6-0.7v-0.1c0.3,0.1,0.6,0.1,0.9,0.1s0.6-0.1,0.9-0.2c0.3-0.1,0.5-0.3,0.8-0.5
	c0.3-0.3,0.5-0.6,0.7-0.9c0.3-0.6,0.4-1.4,0.2-2c-0.2-0.6-0.6-1.1-1.1-1.6v-0.1l1.7,0.8l1.1-2.4l-10.9-5L272.3,203.9z"/>
<path class="st0" d="M287,194.2l-2,0.7c0.2,0.3,0.4,0.8,0.5,1.1c0.1,0.4,0.1,0.9-0.1,1.3c-0.1,0.5-0.4,0.9-0.9,1
	c-0.6,0.2-1.2,0.2-1.8-0.1l-0.4-0.1l0.2-0.6c0.2-0.5,0.3-1.1,0.4-1.7c0.1-0.6,0.1-1.1-0.1-1.7c-0.2-0.5-0.4-1.1-0.8-1.5
	c-0.5-0.5-1.1-0.9-1.8-1.1c-0.5-0.2-1.1-0.3-1.7-0.3c-0.4,0-0.9,0.1-1.3,0.3c-0.3,0.2-0.7,0.4-0.9,0.7c-0.2,0.3-0.4,0.6-0.5,0.9
	c-0.2,0.6-0.3,1.3-0.1,1.9c0.2,0.5,0.7,1,1.1,1.4v0.1l-1.7-0.5l-0.7,2.1l6.8,2.2c0.7,0.2,1.4,0.4,2.2,0.5c0.6,0.1,1.2,0.1,1.8-0.1
	c0.5-0.2,1-0.4,1.4-0.9c0.4-0.5,0.8-1,0.9-1.6c0.2-0.7,0.3-1.4,0.2-2C287.7,195.6,287.4,194.8,287,194.2z M281,196
	c-0.1,0.3-0.1,0.7-0.2,0.9l-0.3,0.8l-0.7-0.2c-0.4-0.1-0.7-0.3-1-0.4c-0.3-0.1-0.6-0.4-0.9-0.7c-0.2-0.2-0.4-0.5-0.5-0.8
	s-0.1-0.7,0-1c0.1-0.3,0.4-0.7,0.7-0.8c0.5-0.2,1-0.2,1.5,0.1c0.3,0.1,0.7,0.3,0.9,0.5c0.2,0.2,0.4,0.4,0.4,0.8
	C281.1,195.4,281.1,195.8,281,196L281,196z"/>
<path class="st0" d="M273.1,222c-0.6-0.7-1.3-1.2-2.1-1.6c-1.7-1-3.3-1.5-4.7-1.4c-1.3,0.1-2.5,0.9-3.2,2c-0.5,0.7-0.7,1.6-0.6,2.5
	c0.1,0.8,0.4,1.6,0.9,2.3l2-1.1c-0.3-0.3-0.4-0.8-0.5-1.1c-0.2-0.8,0.2-1.5,0.9-1.9c0.3-0.1,0.6-0.2,0.9-0.2c0.4,0,0.8,0.1,1.1,0.2
	c0.4,0.2,0.8,0.3,1.2,0.5l-3.2,5.3l0.9,0.5c0.7,0.4,1.4,0.8,2.2,1c0.7,0.2,1.4,0.3,2,0.3c0.6,0,1.3-0.2,1.7-0.5
	c0.6-0.3,1.1-0.8,1.4-1.4c0.3-0.5,0.5-1.2,0.5-1.9s-0.1-1.3-0.4-1.9S273.6,222.5,273.1,222z M272.3,226.5c-0.3,0.5-0.8,0.8-1.4,0.7
	c-0.8-0.1-1.5-0.3-2.1-0.8l1.9-3.2c0.3,0.2,0.5,0.4,0.8,0.6c0.3,0.2,0.5,0.5,0.7,0.8c0.2,0.3,0.3,0.6,0.4,0.9
	C272.6,225.9,272.5,226.2,272.3,226.5L272.3,226.5z"/>
<path class="st0" d="M291.9,168.9c0.5-0.1,1.1-0.4,1.5-0.8c0.4-0.4,0.7-1,0.7-1.6c0.1-0.6,0-1.2-0.3-1.7c-0.3-0.5-0.7-1-1.1-1.4
	c-0.6-0.4-1.2-0.8-1.9-0.9c-1.6-0.5-3.4-0.7-5.1-0.5c-0.7,0.1-1.5,0.3-2.1,0.5c-0.6,0.2-1.1,0.6-1.5,1.1c-0.4,0.4-0.6,1-0.7,1.6
	c-0.1,0.7,0.1,1.3,0.4,1.9c0.4,0.4,0.9,0.8,1.4,1v0.1l-1.7-0.2l-0.3,2.6l17.7,1.9l0.3-2.6l-7.3-0.8L291.9,168.9z M291.7,167.1
	c-0.1,0.3-0.2,0.6-0.4,0.8c-0.3,0.3-0.6,0.4-0.9,0.5c-0.4,0.1-0.9,0.2-1.3,0.2c-0.5,0.1-1.1,0-1.6-0.1c-0.5-0.1-1-0.2-1.6-0.3
	c-0.4-0.1-0.9-0.3-1.3-0.5c-0.3-0.2-0.6-0.4-0.8-0.7c-0.4-0.5-0.3-1.3,0.2-1.8c0.3-0.2,0.6-0.4,0.9-0.5c0.4-0.1,0.9-0.2,1.3-0.2
	c0.5,0,1,0,1.6,0.1c0.5,0.1,1.1,0.2,1.6,0.3c0.4,0.1,0.9,0.3,1.3,0.5c0.3,0.2,0.6,0.4,0.8,0.7C291.7,166.4,291.7,166.7,291.7,167.1z
	"/>
<path class="st0" d="M293.7,184.2c-0.7-0.8-1.5-1.4-2.4-1.9c-1-0.5-2.2-1-3.3-1.3s-2.3-0.4-3.5-0.4c-1,0-2,0.2-3,0.5
	c-0.8,0.3-1.6,0.8-2.2,1.5c-0.6,0.7-1,1.5-1.3,2.3c-0.2,0.9-0.2,1.8,0,2.7c0.2,0.8,0.7,1.4,1.1,2l2.2-1.1c-0.3-0.3-0.6-0.8-0.8-1.2
	c-0.2-0.5-0.2-1-0.1-1.5s0.4-1,0.8-1.4c0.4-0.4,1-0.6,1.5-0.8c0.7-0.2,1.4-0.2,2-0.2c0.8,0.1,1.6,0.2,2.3,0.3
	c0.8,0.2,1.5,0.4,2.3,0.8c0.7,0.3,1.2,0.7,1.7,1.1c0.4,0.4,0.8,0.8,1,1.3c0.2,0.5,0.3,1,0.1,1.5c-0.2,1-1,1.8-1.9,2.1l1.5,2
	c0.7-0.3,1.4-0.8,1.9-1.4c0.5-0.7,0.9-1.5,1.1-2.3c0.2-0.9,0.2-1.7-0.1-2.6C294.7,185.7,294.3,184.9,293.7,184.2z"/>
<rect x="289.7" y="148.1" transform="matrix(3.158522e-02 -0.9995 0.9995 3.158522e-02 124.9894 442.9217)" class="st0" width="2.7" height="17.8"/>
<path class="st0" d="M257.9,229.7l4.9,3.4c0.4,0.3,0.7,0.5,1,0.9c0.3,0.3,0.5,0.7,0.7,1c0.2,0.3,0.3,0.7,0.3,1
	c0,0.3-0.1,0.7-0.3,0.9c-0.1,0.2-0.2,0.3-0.4,0.4l2.2,1.7c0.1-0.1,0.1-0.1,0.2-0.1l0.1-0.2c0.3-0.5,0.4-1.1,0.3-1.6
	c-0.2-0.8-0.5-1.4-1.1-2v0.1l1.9,1.3l1.5-2.1l-9.8-6.9L257.9,229.7z"/>
<path class="st0" d="M159.8,21.8l6.5,0.8l-1.5-2.2l0.7-5.7c0.3,0.1,0.7,0.1,0.9,0.1l2.7,8.1l3.9,0.5l4,0.9l-1.6-2.3l1.8-2.9l5,1.1
	l0.4,3.3l-2.4,1.5l6.7,1.5l-1.1-2.4l-1.9-14.8l-3.2-0.7l0.5,2.9l-6.4,10.2l-1.7,1l-1.3-1.6l-2.5-6.7c2.2-0.5,3.5-1.7,3.8-3.5
	c0.3-2.4-1.9-4.1-5.9-4.6l-5.5-0.7l1.4,2.6l-1.4,11.7L159.8,21.8z M181.3,12.7l0.8,6.9l-4.5-1L181.3,12.7z M166.4,7l0.3,0.1
	c1.7,0.2,3.2,1.4,2.9,3.9c-0.3,2.3-2,3.4-3.8,3.2l-0.3-0.1L166.4,7z"/>
<path class="st0" d="M255.7,59.7c0.6-0.2,1.2,0,1.6,0.5c0.2,0.2,0.3,0.4,0.3,0.7c0,0.3-0.1,0.5-0.2,0.7c-0.1,0.3-0.3,0.5-0.5,0.7
	c-0.2,0.2-0.4,0.4-0.7,0.7l-5.7,5l1.7,2l5.7-5c0.4-0.4,0.9-0.8,1.3-1.3c0.4-0.4,0.7-0.9,0.9-1.4c0.4-1,0.2-2.1-0.5-2.9
	c-0.4-0.5-1.1-0.9-1.7-1c-0.7-0.1-1.3,0-2,0.3l-0.1-0.1l1.4-1.3l-1.7-2l-9,7.9l1.7,2l5.2-4.6C254.3,60.3,254.9,59.9,255.7,59.7z"/>
<polygon class="st0" points="215.7,38.9 221.3,42.3 221.1,39.3 226.8,29.7 229.6,28.5 224,25.1 224.2,28.1 218.5,37.6 "/>
<path class="st0" d="M205.1,33.9c2.6,1.2,5.2,0.4,7.5-2.3l-0.2-0.2c-1.5,1.2-3.5,1.5-5.3,0.7c-2.6-1.2-3.2-4.4-1.4-8.3
	c1.5-3.3,4-5,6.1-4c1.7,0.8,2.5,3.5,1.9,6.1l0.2,0.1l2.2-4.9l-2.9-1.4c-4.4-2-9.1-0.2-11.2,4.5C200.1,28.5,201.6,32.2,205.1,33.9z"
	/>
<path class="st0" d="M192.7,28.9c2.7,0.9,5.2-0.2,7.3-3.1l-0.2-0.2c-1.4,1.4-3.3,1.9-5.2,1.3c-2.7-0.9-3.7-4-2.3-8.1
	c1.1-3.5,3.4-5.3,5.6-4.6c1.9,0.6,2.9,3.2,2.6,5.8l0.2,0.1l1.7-5.2l-3.1-1c-4.6-1.5-9.1,0.8-10.7,5.7
	C187.1,24.1,189.1,27.7,192.7,28.9z"/>
<polygon class="st0" points="246.1,52.3 249.2,55.3 250.9,53.7 247.7,50.7 250.7,47.5 254.2,50.7 255.9,48.9 250.5,43.8 239,55.8 
	244.5,61.1 246.2,59.2 242.7,55.8 "/>
<path class="st0" d="M128.1,15.2l-0.1-0.7C91.6,20.2,58.9,40,37.1,69.7l0.5,0.4C59.3,40.6,91.8,20.8,128.1,15.2z"/>
<path class="st0" d="M180.1,290.2c-21.8,4.7-44.3,4.2-65.8-1.5l-0.2,0.7c46.4,12.3,95.8,0.3,131.3-32.1l-0.5-0.5
	C226.6,273.5,204.3,285,180.1,290.2z"/>
</svg>
