<?xml version="1.0" encoding="utf-8"?>
<!-- Generator: Adobe Illustrator 25.2.0, SVG Export Plug-In . SVG Version: 6.00 Build 0)  -->
<svg version="1.1" id="Layer_1" xmlns="http://www.w3.org/2000/svg" xmlns:xlink="http://www.w3.org/1999/xlink" x="0px" y="0px"
	 viewBox="0 0 500 500" style="enable-background:new 0 0 500 500;" xml:space="preserve">
<style type="text/css">
	.st0{fill:#FFFFFF;}
</style>
<polygon class="st0" points="37.7,310.5 36.6,306 9.7,312.8 10.7,316.8 17.6,322.5 20.6,319.5 16.2,315.9 "/>
<path class="st0" d="M17.6,287.3c-1.2-0.8-2.8-0.6-3.8,0.5c-0.5,0.5-0.6,1.2-0.5,1.9s0.5,1.4,1,1.7c0.5,0.4,1.3,0.5,2,0.5
	c0.7-0.1,1.4-0.4,1.8-0.9c0.5-0.5,0.6-1.3,0.5-1.9C18.5,288.3,18.2,287.6,17.6,287.3z"/>
<path class="st0" d="M81.7,396.5l-9.2,7.1c-1,0.8-2.2,1.4-3.5,1.6c-1,0.2-2-0.1-2.6-0.9c-0.3-0.4-0.5-0.7-0.5-1.2s0.2-0.8,0.4-1.2
	c0.3-0.5,0.5-0.8,0.9-1.1c0.4-0.4,0.7-0.7,1.2-1l9.9-7.7l-2.6-3.5l-9.1,7.1c-1,0.8-2.2,1.4-3.5,1.6c-1,0.2-2-0.2-2.6-1
	c-0.3-0.4-0.5-0.8-0.5-1.3s0.1-0.8,0.4-1.2c0.3-0.5,0.5-0.8,0.9-1.1c0.4-0.4,0.7-0.6,1.2-1l9.9-7.7l-2.7-3.5l-9.9,7.7
	c-0.8,0.6-1.6,1.3-2.4,2c-0.6,0.6-1.2,1.4-1.6,2.2c-0.4,0.7-0.5,1.5-0.5,2.4c0.1,0.9,0.5,1.8,1.1,2.5c0.4,0.5,0.9,1,1.5,1.4
	c0.5,0.3,1.1,0.5,1.6,0.6c0.5,0.1,1.1,0.2,1.6,0.1c0.5,0,1-0.2,1.5-0.3v0.1c-0.3,0.5-0.5,0.9-0.7,1.4c-0.2,0.5-0.4,1-0.5,1.5
	c-0.1,0.5,0,1.1,0.2,1.5c0.2,0.6,0.5,1.2,0.9,1.6c0.6,0.9,1.7,1.6,2.8,1.8c1.1,0.2,2.2,0.1,3.2-0.4v0.1l-2.5,1.9l2.7,3.5L84.4,400
	L81.7,396.5z"/>
<path class="st0" d="M32.2,285.3c-0.5-0.5-1.3-0.5-2-0.5s-1.4,0.4-1.8,0.9c-0.9,1-0.8,2.5,0.3,3.5c0.1,0.1,0.2,0.1,0.3,0.2
	c1.2,0.7,2.8,0.5,3.8-0.5c0.5-0.5,0.6-1.3,0.5-1.9C33.1,286.3,32.7,285.7,32.2,285.3z"/>
<rect x="35.1" y="333.2" transform="matrix(0.928 -0.3725 0.3725 0.928 -124.5006 38.2756)" class="st0" width="3.5" height="16.2"/>
<path class="st0" d="M64.1,372.4L54,378.1c-1.1,0.6-2.4,1.1-3.6,1.1c-1,0.1-1.9-0.5-2.5-1.3c-0.3-0.4-0.4-0.8-0.3-1.3
	s0.3-0.8,0.5-1.1c0.3-0.4,0.6-0.7,1-1c0.5-0.3,0.8-0.5,1.3-0.8l10.9-6.2l-2.2-3.8l-10.1,5.7c-1.1,0.7-2.4,1.1-3.7,1.1
	c-1,0.1-2-0.5-2.5-1.4c-0.3-0.4-0.4-0.8-0.3-1.3s0.3-0.8,0.5-1.2c0.3-0.4,0.6-0.7,1.1-1c0.5-0.3,0.8-0.5,1.3-0.8l10.9-6.2l-2.2-3.8
	l-10.9,6.2c-0.9,0.5-1.7,1.1-2.5,1.6c-0.7,0.5-1.4,1.2-1.9,1.9c-0.5,0.6-0.7,1.5-0.8,2.3c0,0.9,0.2,1.8,0.7,2.6
	c0.4,0.5,0.7,1.1,1.3,1.5c0.5,0.4,1,0.7,1.5,0.9c0.5,0.2,1.1,0.3,1.6,0.4c0.5,0,1,0,1.5-0.1v0.1c-0.4,0.4-0.7,0.8-0.9,1.2
	c-0.3,0.5-0.5,0.9-0.6,1.4c-0.1,0.5-0.2,1.1-0.1,1.5c0.1,0.6,0.3,1.2,0.6,1.7c0.5,1,1.5,1.8,2.5,2.2c1,0.4,2.1,0.4,3.2,0.1v0.1
	l-2.7,1.5l2.2,3.8l17.4-9.9L64.1,372.4z"/>
<path class="st0" d="M25.8,156.7c0.8,0.6,1.6,1.1,2.5,1.5l2.6,1.2l-1,2.3l3.2,1.5l1.1-2.3l15,6.8l1.8-3.9l-15-6.8l1.4-2.9l-3.3-1.5
	l-1.4,2.9l-2.5-1.2c-0.5-0.2-0.9-0.5-1.3-0.7s-0.7-0.5-1-0.9c-0.3-0.3-0.5-0.6-0.5-1c-0.1-0.5,0-0.8,0.2-1.3c0.2-0.4,0.4-0.7,0.6-1
	l-3.2-1.7c-0.3,0.3-0.5,0.5-0.6,0.8c-0.2,0.3-0.4,0.6-0.5,0.9c-0.5,0.9-0.6,1.8-0.6,2.8c0,0.8,0.3,1.6,0.6,2.4
	C24.5,155.5,25.1,156.2,25.8,156.7z"/>
<path class="st0" d="M16.4,227.9c0.5,0.9,1,1.7,1.8,2.4c0.7,0.6,1.6,1,2.5,1.3c0.9,0.2,1.9,0.2,2.9-0.1c1-0.3,1.8-0.8,2.5-1.5
	c0.8-0.8,1.5-1.7,2.1-2.8c0.6-1.3,1.1-2.5,1.4-4c0.3-1.1,0.4-2.3,0.4-3.5c0-1-0.1-2-0.4-3c-0.2-0.9-0.5-1.8-0.8-2.7
	c-0.4-0.9-0.7-1.8-1.1-2.7c0.7-0.6,1.4-1.3,2.1-1.9c0.7-0.7,1.4-1.5,1.9-2.3c0.6-0.8,1.2-1.7,1.5-2.7c1.1-2.4,1.5-4.9,1.4-7.5
	c-0.1-1.2-0.4-2.3-0.8-3.4c-0.5-0.9-1-1.7-1.8-2.4c-1.5-1.3-3.5-1.6-5.4-1.2c-1,0.3-1.8,0.8-2.5,1.5c-0.8,0.8-1.5,1.7-2.1,2.7
	c-0.6,1.3-1.1,2.5-1.4,3.9c-0.3,1.2-0.4,2.4-0.4,3.5c0,1.1,0.2,2.1,0.5,3.2c0.2,1,0.5,1.9,0.9,2.8c0.4,0.9,0.8,1.8,1.2,2.6
	c-0.7,0.6-1.5,1.3-2.2,2c-1.5,1.5-2.7,3.1-3.6,5c-0.5,1.1-0.9,2.2-1.1,3.4c-0.3,1.4-0.4,2.7-0.3,4.1
	C15.6,225.7,15.9,226.9,16.4,227.9z M24.2,198.9c0.2-1.2,0.7-2.4,1.6-3.2c0.7-0.6,1.6-0.9,2.6-0.7c0.9,0.2,1.6,0.8,2,1.6
	c0.5,1.1,0.5,2.4,0.2,3.5c-0.2,0.8-0.5,1.5-0.8,2.3c-0.4,0.7-0.7,1.4-1.2,1.9c-0.5,0.5-0.9,1.2-1.4,1.6c-0.5,0.5-1,1-1.5,1.4
	c-0.3-0.5-0.5-1.1-0.7-1.8c-0.3-0.7-0.5-1.4-0.7-2.1c-0.2-0.7-0.3-1.5-0.4-2.3C24,200.4,24,199.6,24.2,198.9L24.2,198.9z
	 M19.5,221.3c0.2-0.7,0.5-1.5,0.8-2.2c0.4-0.7,0.8-1.4,1.3-2s1-1.2,1.5-1.7c0.5-0.5,1-1,1.4-1.4c0.3,0.5,0.5,1.2,0.7,1.8
	c0.3,0.7,0.5,1.4,0.6,2.1c0.2,0.7,0.3,1.5,0.3,2.3c0,0.7,0,1.5-0.2,2.3c-0.2,1.2-0.7,2.3-1.5,3.2c-0.6,0.7-1.6,1-2.5,0.7
	c-0.9-0.2-1.6-0.8-2-1.7C19.3,223.6,19.2,222.4,19.5,221.3L19.5,221.3z"/>
<path class="st0" d="M10.4,243.6c1.5,0.5,3.1,0.9,4.6,1.3c1.5,0.3,3.2,0.5,4.7,0.6c1.5,0.1,3.2,0.1,4.7,0c1.6-0.1,3.2-0.3,4.7-0.5
	c1.5-0.3,3.1-0.6,4.5-1.2c1.5-0.5,2.8-1.1,4.2-1.7l-1.2-3.2c-1.3,0.6-2.5,1.1-3.8,1.5c-1.4,0.5-2.8,0.8-4.2,1
	c-1.5,0.3-2.9,0.5-4.4,0.5c-1.5,0.1-2.9,0.1-4.4,0c-2.9-0.2-5.8-0.8-8.6-1.7c-1.4-0.5-2.7-1-4-1.6c-1.3-0.5-2.5-1.3-3.6-2.1
	l-1.6,2.9c1.3,0.9,2.5,1.6,3.9,2.3C7.4,242.6,8.9,243.2,10.4,243.6z"/>
<polygon class="st0" points="36.6,279.4 40.1,279.2 39.1,255.7 35.1,255.9 35.9,273.6 19.5,262.9 4.7,274.4 4,257.8 0,258 1,280.5 
	4.4,280.3 19.8,268.2 "/>
<path class="st0" d="M19.9,176.5c1.5,0,2.9,0,4.4,0.2c2.9,0.3,5.8,0.9,8.5,1.9c1.4,0.5,2.7,1.1,4,1.7c2.6,1.4,5.1,3,7.3,4.9
	c1.1,0.9,2,1.9,2.9,2.9l2.4-2.4c-0.9-1.2-2-2.3-3.1-3.3c-1.2-1.1-2.4-2-3.7-2.9c-1.4-0.9-2.7-1.7-4.2-2.5s-2.9-1.4-4.4-1.9
	c-1.5-0.5-3-1-4.5-1.4c-1.5-0.4-3.2-0.5-4.7-0.7c-1.5-0.2-3.1-0.2-4.7-0.1c-1.5,0.1-3,0.3-4.5,0.5l0.3,3.4
	C17.2,176.8,18.5,176.6,19.9,176.5z"/>
<path class="st0" d="M143.8,474c-0.8,0.4-1.7,0.3-2.5-0.1c-0.8-0.4-1.5-1.1-1.5-2c-0.1-1,0.1-2,0.5-2.8c0.5-0.9,1.1-1.6,1.9-2.2
	c0.9-0.7,2-1.3,3-1.8l11.7-5.5l1.9-3.8l-13.4-6.7l-1.8,3.6l8.5,4.3l-8.5,4c-0.8,0.4-1.6,0.8-2.4,1.2s-1.5,0.8-2.2,1.3
	c-0.6,0.5-1.3,1-1.8,1.5c-0.5,0.6-1,1.4-1.5,2.1c-0.5,0.9-0.8,2-1,3c-0.2,1-0.1,2,0.2,2.9s0.7,1.8,1.4,2.5c0.7,0.8,1.6,1.5,2.6,2
	c1.7,1,3.7,1.2,5.7,0.7c2.1-0.6,3.8-2.1,4.9-3.9l-3.7-2.4C145.6,472.8,144.8,473.5,143.8,474z"/>
<rect x="131.1" y="450.2" transform="matrix(0.5141 -0.8577 0.8577 0.5141 -324.5461 334.2863)" class="st0" width="3.5" height="6.7"/>
<path class="st0" d="M162.7,461.7l8.9,3.5l-8,4.7l-2.3,1.4c-0.7,0.5-1.4,0.9-2,1.5c-0.6,0.5-1.2,1.1-1.7,1.7
	c-0.5,0.6-0.9,1.4-1.3,2.2c-0.4,1-0.6,2-0.7,3.1c-0.1,1,0.1,1.9,0.5,2.9c0.4,0.9,0.9,1.7,1.5,2.4c0.8,0.7,1.7,1.4,2.7,1.7
	c1.8,0.8,3.8,0.9,5.7,0.2c2-0.8,3.6-2.4,4.6-4.3l-4-2.1c-0.5,1-1.3,1.7-2.2,2.3c-0.8,0.4-1.7,0.5-2.5,0.1c-0.8-0.3-1.5-1-1.7-1.9
	c-0.2-1-0.1-2,0.4-2.9c0.4-0.9,1-1.7,1.7-2.4c0.9-0.8,1.8-1.5,2.8-2.1l11.3-6.5l1.6-4l-13.9-5.5L162.7,461.7z"/>
<path class="st0" d="M86.5,422c-0.7-0.5-1.5-1-2.1-1.6c-0.9-0.8-1.4-2.1-1.3-3.3c0.2-1.4,0.9-2.6,2-3.6c0.9-1,2.1-1.6,3.4-1.9
	c1.1-0.3,2.2,0.1,2.9,0.9c0.6,0.6,0.9,1.5,0.9,2.3c0,0.9-0.3,1.8-0.7,2.6l3.7,2c1-1.5,1.5-3.4,1.4-5.3c-0.3-1.8-1.1-3.5-2.4-4.6
	c-0.7-0.8-1.6-1.5-2.6-1.9s-2-0.6-3.1-0.5c-1.2,0.1-2.3,0.4-3.4,0.8c-1.3,0.6-2.5,1.5-3.4,2.4c-0.9,0.8-1.6,1.8-2.2,2.8
	c-0.5,0.9-0.8,1.9-1,2.9c-0.1,1,0,2,0.4,2.9c0.4,1,1,1.9,1.7,2.7c0.3,0.3,0.6,0.5,1,0.8c0.4,0.3,0.7,0.5,1.2,0.6l-4.8,4.3l-6.1-6.3
	l-2.9,2.9l8.8,9.2l11-10C88.1,422.9,87.4,422.5,86.5,422z"/>
<path class="st0" d="M95.6,442.8c-0.8,0.1-1.7-0.1-2.4-0.7c-0.7-0.5-1.1-1.5-1-2.4c0.2-1,0.5-1.9,1.3-2.6c0.6-0.7,1.5-1.4,2.4-1.7
	c1.1-0.5,2.2-0.8,3.4-1.1l12.7-2.5l2.8-3.3l-11.4-9.7l-2.6,3.1l7.3,6.2l-9.1,1.8c-0.9,0.2-1.7,0.4-2.6,0.5c-0.8,0.2-1.6,0.5-2.4,0.7
	s-1.5,0.6-2.2,1.1c-0.6,0.5-1.3,1-1.8,1.6c-0.7,0.8-1.3,1.7-1.6,2.7c-0.4,0.9-0.5,1.9-0.5,2.8c0,1,0.3,1.9,0.7,2.7
	c0.5,1,1.2,1.8,2,2.5c1.5,1.4,3.4,2.1,5.4,2.1c2.2-0.2,4.2-1.1,5.7-2.6l-3.1-3.2C97.7,442.1,96.7,442.6,95.6,442.8z"/>
<polygon class="st0" points="121.8,433.8 105.9,456.5 109.4,458.9 118.2,458.7 118.5,454.5 112.8,454.7 125.6,436.5 "/>
<polygon class="st0" points="467,217.1 478.7,215.1 479.9,222.1 483.9,221.4 482.6,214.4 490.2,213.1 491.5,220.7 495.6,220 
	493.6,207.7 466.2,212.4 "/>
<path class="st0" d="M494.4,226c-0.7,0.1-1.4,0.4-1.8,0.9c-0.5,0.5-0.6,1.3-0.5,1.9c0.1,0.7,0.5,1.4,1,1.7c0.5,0.5,1.3,0.6,2,0.5
	c0.7-0.1,1.4-0.4,1.9-0.9c0.9-1,0.8-2.6-0.2-3.5c-0.1-0.1-0.1-0.1-0.2-0.2C495.8,226.1,495.1,225.9,494.4,226z"/>
<path class="st0" d="M436,156.2l10.6-5.5v0.1c-0.6,0.6-1.2,1.5-1.4,2.5c-0.2,1-0.1,2.1,0.5,3c0.5,0.9,1.1,1.6,2,2.1s1.9,0.7,2.9,0.8
	c1.2,0,2.5-0.1,3.5-0.5c1.4-0.4,2.7-0.9,4-1.6c1.3-0.6,2.5-1.5,3.5-2.4c0.9-0.7,1.7-1.6,2.5-2.6c0.5-0.8,0.9-1.8,1.1-2.8
	c0.1-1-0.1-2-0.5-2.8c-0.5-1-1.3-1.7-2.3-2.2c-0.9-0.3-1.9-0.4-2.9-0.2v-0.1l2.5-1.3l-2-3.8L434,152.4L436,156.2z M448.5,151.6
	c0.2-0.5,0.5-1.1,0.8-1.6c0.5-0.5,1-1.1,1.6-1.5c1.5-1.1,3-1.9,4.7-2.5c0.7-0.3,1.5-0.4,2.2-0.5c0.6,0,1.2,0.1,1.7,0.3
	c0.5,0.2,0.9,0.5,1.1,1c0.3,0.5,0.4,1,0.2,1.5c-0.2,0.5-0.5,1.1-0.8,1.5c-0.5,0.5-1,1.1-1.6,1.5c-0.7,0.5-1.5,1-2.3,1.4
	c-0.8,0.5-1.6,0.7-2.5,1.1c-0.7,0.3-1.5,0.5-2.2,0.5c-0.6,0.1-1.2,0-1.7-0.3c-0.5-0.2-0.9-0.5-1.2-1.1
	C448.4,152.7,448.4,152.2,448.5,151.6L448.5,151.6z"/>
<path class="st0" d="M429.1,118.5c-1.3,0.8-2.3,2-2.8,3.5c-0.4,1.4,0.1,2.8,1,3.8c0.3,0.5,0.6,0.8,1.1,1.2c0.3,0.3,0.6,0.5,1.1,0.8
	l2.7-2.1c-0.2-0.1-0.4-0.2-0.5-0.4c-0.2-0.2-0.4-0.4-0.5-0.5c-0.4-0.5-0.5-1.1-0.3-1.6c0.4-0.7,0.9-1.4,1.6-1.8l8.3-6.1l2.1,2.8
	l2.7-2l-2.1-2.8l4.1-3l-2.5-3.4l-4.1,3l-1.5-2l-2.7,2l1.5,2L429.1,118.5z"/>
<rect x="387.7" y="63.9" transform="matrix(0.6036 -0.7973 0.7973 0.6036 96.9884 339.0215)" class="st0" width="3.5" height="16.2"/>
<path class="st0" d="M439.8,125.2c-1.3,0.7-2.4,1.6-3.4,2.7c-0.8,0.9-1.5,1.9-2,3.1c-0.5,1-0.6,2.1-0.5,3.2c0.2,2.3,1.5,4.3,3.5,5.5
	c1,0.5,2,0.8,3.1,0.9c1.3,0.1,2.5-0.1,3.6-0.5c2.8-0.9,5.3-2.5,7.4-4.6c0.8-0.9,1.5-1.9,2-3.1c0.5-1,0.6-2.1,0.5-3.2
	c-0.2-2.3-1.5-4.3-3.5-5.5c-0.9-0.5-2-0.9-3.1-0.9c-1.3,0-2.5,0.2-3.6,0.5C442.5,123.7,441.1,124.4,439.8,125.2z M446.7,127
	c0.5-0.1,1.2-0.1,1.7,0.1c1.1,0.4,1.7,1.4,1.5,2.5c-0.1,0.5-0.4,1.2-0.7,1.6c-0.5,0.6-0.9,1.2-1.5,1.6c-0.6,0.5-1.4,1.1-2.2,1.6
	c-0.7,0.5-1.5,0.9-2.4,1.3c-0.7,0.3-1.4,0.5-2.2,0.6c-0.5,0.1-1.2,0.1-1.7-0.1c-0.5-0.2-1-0.5-1.3-1c-0.3-0.5-0.5-1-0.4-1.5
	s0.4-1.1,0.6-1.6c0.5-0.6,0.9-1.2,1.5-1.6c0.6-0.5,1.4-1.1,2.2-1.6c0.7-0.5,1.5-0.9,2.4-1.3C445.3,127.3,446,127.1,446.7,127
	L446.7,127z"/>
<path class="st0" d="M456.6,164.7c-1.5,0.5-2.6,1.5-3.5,2.7c-0.6,1.3-0.6,2.7,0.1,4c0.2,0.5,0.5,0.9,0.7,1.4c0.3,0.4,0.5,0.7,0.8,1
	l3.2-1.5c-0.2-0.2-0.4-0.3-0.5-0.5c-0.2-0.2-0.3-0.5-0.4-0.6c-0.3-0.5-0.3-1.2,0.1-1.7c0.5-0.6,1.3-1.1,2-1.4l9.5-4.1l1.4,3.2
	l3.1-1.4l-1.4-3.3l4.6-2l-1.6-3.8l-4.6,2l-1-2.3l-3.1,1.4l1,2.3L456.6,164.7z"/>
<path class="st0" d="M475,243.9c0.5-0.4,1.2-0.6,1.8-0.7c0.7-0.2,1.5-0.3,2.2-0.3l0.4,10.4h1.6c1.4,0,2.6-0.2,4-0.5
	c1.1-0.3,2.2-0.7,3.2-1.4c0.9-0.5,1.5-1.4,2.1-2.3c1-2,0.9-4.4-0.2-6.4c-0.5-0.9-1.4-1.7-2.3-2.4c-1.1-0.7-2.2-1.2-3.5-1.5
	c-1.5-0.4-2.9-0.5-4.4-0.5c-3.5,0.1-6,0.9-7.8,2.4c-1.7,1.4-2.7,3.5-2.5,5.7c0,1.5,0.5,2.9,1.4,4c0.9,1.1,2.1,1.9,3.4,2.4l1.8-3.3
	c-0.6-0.3-1.3-0.6-1.8-1.1c-0.5-0.5-0.8-1.2-0.8-1.9c0-0.5,0.1-1.1,0.4-1.5C474.1,244.6,474.6,244.3,475,243.9z M483.7,243
	c0.5,0.1,1.1,0.3,1.6,0.5c0.5,0.2,0.9,0.5,1.3,0.9c0.4,0.4,0.5,0.9,0.5,1.5c0.1,0.9-0.5,1.8-1.4,2.3c-1.1,0.5-2.4,0.8-3.6,0.8
	l-0.2-6.1C482.6,242.8,483.2,242.9,483.7,243z"/>
<path class="st0" d="M469.4,184.7c-1.4,0.4-2.7,0.9-4,1.6c-1.1,0.6-2.1,1.4-2.9,2.4c-0.7,0.8-1.2,1.8-1.5,2.9
	c-0.4,2,0.1,4.1,1.4,5.7c0.5,0.6,1.1,1.2,1.8,1.5l2.8-2.7c-0.5-0.2-0.8-0.5-1.1-0.7c-0.4-0.4-0.5-0.8-0.7-1.3c-0.4-1.1,0.1-2.4,1-3
	c1.3-1,2.7-1.7,4.4-2.2c1.5-0.5,3.2-0.7,4.8-0.5c1.1,0.1,2.1,0.8,2.5,1.9c0.2,0.5,0.2,0.9,0.1,1.5c-0.1,0.5-0.3,0.8-0.5,1.2l3.7,1
	c0.8-1.5,0.9-3.3,0.5-4.9c-0.3-1.1-0.8-2.1-1.6-2.9c-0.7-0.7-1.7-1.4-2.7-1.6c-1.2-0.4-2.4-0.5-3.6-0.5
	C472.2,184.1,470.7,184.3,469.4,184.7z"/>
<path class="st0" d="M480.1,173.9c0.6,0.3,1.5,0.3,2.1,0c0.7-0.3,1.3-0.7,1.6-1.4c0.6-1.2,0.2-2.7-1-3.4c-0.1,0-0.2-0.1-0.2-0.1
	c-1.4-0.5-2.9,0.1-3.6,1.4C478.3,171.6,478.8,173.2,480.1,173.9C480.1,173.8,480.1,173.8,480.1,173.9L480.1,173.9z"/>
<rect x="456.5" y="174.6" transform="matrix(0.9412 -0.3379 0.3379 0.9412 -32.325 168.026)" class="st0" width="20" height="4.5"/>
<rect x="469" y="228.1" transform="matrix(0.9942 -0.1073 0.1073 0.9942 -21.9469 52.7275)" class="st0" width="20" height="4.5"/>
<path class="st0" d="M435.6,400.3c0.2,0.7,0.2,1.4,0.1,2.1c-0.1,0.7-0.5,1.4-0.9,1.9c-0.5,0.6-1.2,1.1-2,1.2c-1-0.1-2-0.5-2.7-1.2
	l-0.5-0.4l0.7-0.8c0.6-0.7,1.2-1.5,1.6-2.5c0.5-0.8,0.7-1.8,0.8-2.7c0.1-1-0.1-2-0.5-2.8c-0.5-1.1-1.3-2.1-2.2-2.8
	c-0.7-0.6-1.5-1.1-2.5-1.4c-0.7-0.3-1.5-0.4-2.2-0.3c-0.6,0.1-1.3,0.3-1.8,0.6c-0.5,0.3-1,0.7-1.4,1.2c-0.7,0.8-1.2,1.8-1.2,2.9
	c0,1,0.4,2,1,2.8l-0.1,0.1l-2.3-1.9l-2.4,2.8l9.2,7.5c1,0.8,2,1.5,3.1,2.1c0.9,0.5,1.8,0.8,2.8,0.9c0.9,0.1,1.8-0.1,2.6-0.5
	c0.9-0.5,1.8-1.2,2.5-2c0.7-0.9,1.3-1.9,1.5-3.1c0.4-1.2,0.4-2.4,0.1-3.5L435.6,400.3z M428.8,399.6c-0.3,0.5-0.5,0.9-0.9,1.4
	l-0.8,1l-0.9-0.7c-0.5-0.4-0.9-0.8-1.4-1.3c-0.4-0.5-0.7-1-1-1.5c-0.3-0.5-0.4-1-0.4-1.6c0-0.5,0.2-1.1,0.5-1.5s1-0.7,1.5-0.7
	c0.8,0,1.6,0.4,2.3,0.9c0.5,0.4,0.9,0.8,1.1,1.4c0.2,0.5,0.3,0.9,0.3,1.4C429.2,398.7,429,399.2,428.8,399.6L428.8,399.6z"/>
<path class="st0" d="M453.9,339.8l10.5,4.8c1.2,0.5,2.3,1.3,3,2.3c0.6,0.7,0.8,1.8,0.4,2.7c-0.2,0.5-0.5,0.7-0.9,1
	c-0.4,0.2-0.8,0.3-1.2,0.3c-0.5,0-0.9-0.1-1.4-0.3c-0.5-0.2-0.9-0.4-1.4-0.5l-11.4-5.3l-1.8,4l10.5,4.8c1.2,0.5,2.3,1.3,3.1,2.4
	c0.6,0.8,0.7,1.8,0.4,2.8c-0.2,0.5-0.5,0.8-0.9,1c-0.4,0.2-0.8,0.3-1.2,0.3c-0.5,0-0.9-0.1-1.4-0.3c-0.5-0.2-0.9-0.4-1.4-0.5
	l-11.4-5.3l-1.8,4l11.4,5.3c0.9,0.5,1.8,0.8,2.8,1.1c0.9,0.3,1.7,0.5,2.7,0.5c1.8,0,3.4-1.1,4-2.7c0.3-0.6,0.5-1.3,0.5-1.9
	c0-0.5,0-1.2-0.2-1.7s-0.4-1-0.6-1.5c-0.3-0.5-0.6-0.8-1-1.2v-0.1c0.5,0.1,1,0.1,1.5,0.1s1-0.2,1.5-0.4c0.5-0.2,0.9-0.5,1.4-0.8
	c0.5-0.5,0.8-1,1.1-1.5c0.5-1,0.6-2.3,0.3-3.4c-0.4-1-1-1.9-1.8-2.6v-0.1l2.9,1.4l1.8-4l-18.2-8.4L453.9,339.8z"/>
<path class="st0" d="M478.4,323.7l-3.3,1.1c0.4,0.5,0.6,1.3,0.8,1.9c0.2,0.7,0.1,1.5-0.2,2.1c-0.2,0.8-0.7,1.5-1.5,1.7
	c-1,0.4-2,0.3-3-0.1l-0.6-0.2l0.4-1c0.3-0.9,0.5-1.9,0.6-2.8c0.1-1,0.1-1.9-0.2-2.8c-0.3-0.9-0.7-1.8-1.4-2.5
	c-0.8-0.8-1.9-1.5-3-1.8c-0.9-0.4-1.8-0.5-2.8-0.5c-0.7,0-1.5,0.2-2.2,0.5c-0.5,0.3-1.1,0.7-1.5,1.2s-0.6,1-0.8,1.5
	c-0.4,1-0.5,2.1-0.1,3.2c0.4,0.9,1.1,1.7,1.9,2.3v0.1l-2.8-0.9l-1.2,3.5l11.3,3.7c1.2,0.4,2.4,0.7,3.6,0.8c1,0.1,2,0.1,3-0.2
	c0.9-0.3,1.6-0.7,2.3-1.5c0.7-0.8,1.3-1.7,1.5-2.7c0.4-1.1,0.5-2.3,0.4-3.4C479.5,325.9,479,324.7,478.4,323.7z M468.4,326.7
	c-0.1,0.5-0.2,1.1-0.4,1.5l-0.5,1.3l-1.1-0.4c-0.6-0.2-1.2-0.5-1.7-0.7s-1-0.6-1.5-1.1c-0.4-0.4-0.7-0.8-0.9-1.4s-0.2-1.1,0-1.6
	c0.2-0.5,0.6-1.1,1.2-1.3c0.8-0.3,1.6-0.3,2.5,0.1c0.5,0.2,1.1,0.5,1.5,0.9c0.4,0.4,0.6,0.7,0.7,1.3
	C468.5,325.7,468.5,326.3,468.4,326.7L468.4,326.7z"/>
<path class="st0" d="M455.2,369.9c-1-1.1-2.2-2-3.5-2.7c-2.9-1.7-5.5-2.5-7.8-2.3c-2.2,0.2-4.2,1.5-5.3,3.4c-0.8,1.2-1.2,2.6-1,4.1
	c0.2,1.4,0.7,2.7,1.5,3.8l3.3-1.8c-0.5-0.5-0.7-1.3-0.9-1.9c-0.3-1.3,0.4-2.5,1.5-3.1c0.5-0.2,1-0.4,1.5-0.4c0.6,0,1.3,0.1,1.9,0.4
	c0.7,0.3,1.4,0.5,2,0.9l-5.4,8.9l1.5,0.9c1.2,0.7,2.4,1.3,3.6,1.7c1.1,0.4,2.3,0.5,3.4,0.5c1,0,2.1-0.3,2.9-0.8
	c1-0.5,1.8-1.4,2.4-2.4c0.5-0.9,0.9-2,0.9-3.1c0-1.1-0.2-2.2-0.6-3.2C456.7,371.8,456,370.8,455.2,369.9z M453.9,377.4
	c-0.5,0.8-1.4,1.3-2.4,1.2c-1.3-0.2-2.5-0.5-3.5-1.3l3.2-5.3c0.5,0.3,0.9,0.6,1.3,1c0.5,0.4,0.8,0.8,1.1,1.4c0.3,0.5,0.5,1,0.6,1.5
	C454.3,376.4,454.2,376.9,453.9,377.4L453.9,377.4z"/>
<path class="st0" d="M486.5,281.5c0.9-0.2,1.8-0.6,2.5-1.3c0.7-0.7,1.2-1.6,1.2-2.6c0.1-1,0-2-0.5-2.8c-0.5-0.9-1.1-1.6-1.9-2.3
	c-1-0.7-2-1.3-3.2-1.5c-2.7-0.8-5.6-1.2-8.5-0.9c-1.2,0.1-2.5,0.5-3.5,0.9c-1,0.4-1.8,1-2.5,1.8c-0.6,0.7-1,1.6-1.1,2.6
	c-0.2,1.1,0.1,2.2,0.7,3.1c0.6,0.7,1.5,1.4,2.4,1.7v0.1l-2.8-0.3l-0.5,4.3l29.5,3.2l0.5-4.4l-12.1-1.3L486.5,281.5z M486.2,278.4
	c-0.1,0.5-0.3,1-0.7,1.4c-0.5,0.5-1,0.7-1.5,0.9c-0.7,0.2-1.5,0.4-2.2,0.4c-0.9,0.1-1.8,0-2.7-0.1c-0.9-0.1-1.7-0.3-2.6-0.5
	c-0.7-0.2-1.5-0.5-2.1-0.8c-0.5-0.3-1-0.7-1.4-1.2c-0.6-0.9-0.5-2.2,0.3-3c0.5-0.4,1-0.7,1.5-0.8c0.7-0.2,1.5-0.4,2.2-0.4
	c0.9,0,1.7,0,2.6,0.1s1.8,0.3,2.6,0.5c0.7,0.2,1.5,0.5,2.1,0.8c0.5,0.3,1,0.7,1.4,1.2C486.1,277.3,486.2,277.8,486.2,278.4z"/>
<path class="st0" d="M489.5,307c-1.2-1.3-2.5-2.3-4-3.1c-1.7-0.9-3.6-1.6-5.5-2.1c-1.9-0.5-3.9-0.7-5.8-0.6c-1.7,0-3.4,0.4-5,0.9
	c-1.4,0.5-2.6,1.4-3.7,2.5c-1,1.1-1.7,2.5-2.1,3.9c-0.4,1.5-0.4,3,0,4.5c0.4,1.3,1.1,2.4,1.9,3.4l3.7-1.9c-0.5-0.5-1-1.3-1.3-2
	c-0.3-0.8-0.4-1.6-0.2-2.5c0.2-0.9,0.6-1.7,1.4-2.3c0.7-0.6,1.6-1,2.5-1.3c1.1-0.3,2.3-0.4,3.4-0.3c1.4,0.1,2.6,0.3,3.9,0.5
	c1.3,0.3,2.5,0.7,3.8,1.3c1.1,0.5,2,1.1,2.9,1.8c0.7,0.6,1.4,1.4,1.7,2.2c0.4,0.8,0.5,1.7,0.2,2.5c-0.4,1.6-1.6,3-3.2,3.5l2.5,3.4
	c1.2-0.5,2.3-1.3,3.2-2.3c0.9-1.2,1.5-2.5,1.8-3.9c0.4-1.5,0.4-2.9-0.1-4.4C491.2,309.4,490.5,308.1,489.5,307z"/>
<rect x="482.9" y="246.8" transform="matrix(3.158519e-02 -0.9995 0.9995 3.158519e-02 208.3102 738.2137)" class="st0" width="4.5" height="29.6"/>
<path class="st0" d="M429.9,382.8l8.2,5.7c0.6,0.5,1.2,0.9,1.7,1.5c0.5,0.5,0.9,1.1,1.2,1.7c0.3,0.5,0.5,1.1,0.5,1.7
	c0,0.5-0.1,1.1-0.5,1.5c-0.2,0.3-0.4,0.5-0.6,0.7l3.6,2.8c0.1-0.1,0.2-0.1,0.3-0.2l0.2-0.3c0.5-0.8,0.7-1.8,0.5-2.7
	c-0.3-1.3-0.9-2.4-1.8-3.3V392l3.2,2.2l2.5-3.5l-16.4-11.5L429.9,382.8z"/>
<path class="st0" d="M266.3,36.4l10.8,1.3l-2.5-3.6l1.2-9.5c0.5,0.1,1.1,0.1,1.5,0.2l4.5,13.5l6.5,0.8l6.7,1.5l-2.6-3.8l3-4.8
	l8.3,1.8l0.6,5.5l-4,2.5l11.1,2.5l-1.8-4l-3.1-24.6l-5.4-1.2l0.9,4.9l-10.7,17l-2.9,1.7l-2.1-2.6l-4.1-11.1c3.6-0.8,5.9-2.9,6.3-5.8
	c0.5-4-3.2-6.9-9.8-7.7l-9.1-1.1l2.4,4.3l-2.4,19.5L266.3,36.4z M302.2,21.1l1.4,11.5l-7.5-1.7L302.2,21.1z M277.4,11.6l0.5,0.1
	c2.9,0.4,5.4,2.3,4.8,6.5c-0.5,3.8-3.4,5.6-6.3,5.3l-0.5-0.1L277.4,11.6z"/>
<path class="st0" d="M426.2,99.5c1-0.3,2,0,2.7,0.8c0.3,0.4,0.5,0.7,0.5,1.2s-0.1,0.8-0.3,1.2c-0.2,0.5-0.5,0.8-0.8,1.2
	c-0.4,0.4-0.7,0.7-1.1,1.1l-9.5,8.3l2.9,3.4l9.5-8.3c0.7-0.6,1.5-1.4,2.1-2.1c0.6-0.6,1.1-1.5,1.5-2.3c0.7-1.6,0.4-3.5-0.9-4.8
	c-0.7-0.9-1.8-1.5-2.9-1.6s-2.2,0-3.3,0.5l-0.1-0.1l2.4-2.1l-2.9-3.3l-15,13.2l2.9,3.4l8.7-7.6C423.8,100.4,424.9,99.8,426.2,99.5z"
	/>
<polygon class="st0" points="359.5,64.8 368.8,70.4 368.5,65.4 378,49.4 382.6,47.4 373.3,41.8 373.6,46.8 364.1,62.7 "/>
<path class="st0" d="M341.8,56.4c4.3,2,8.6,0.6,12.5-3.8l-0.3-0.4c-2.5,2-5.9,2.5-8.8,1.2c-4.4-2-5.4-7.4-2.4-13.9
	c2.5-5.5,6.6-8.3,10.1-6.6c2.9,1.4,4.2,5.8,3.2,10.1l0.4,0.2l3.7-8.2l-4.8-2.3c-7.4-3.4-15.1-0.3-18.7,7.5
	C333.5,47.4,336,53.6,341.8,56.4z"/>
<path class="st0" d="M321.2,48.2c4.5,1.5,8.6-0.3,12.1-5.2l-0.4-0.3c-2.3,2.3-5.5,3.1-8.6,2.1c-4.5-1.5-6.2-6.7-3.9-13.5
	c1.9-5.8,5.6-8.9,9.4-7.7c3.1,1,4.8,5.3,4.3,9.6l0.4,0.1l2.8-8.6l-5.1-1.6c-7.7-2.5-15.1,1.4-17.8,9.5
	C311.9,40.2,315.1,46.1,321.2,48.2z"/>
<polygon class="st0" points="410.1,87.1 415.4,92.2 418.1,89.4 412.8,84.4 417.9,79.1 423.6,84.5 426.5,81.5 417.5,72.9 398.3,92.9 
	407.5,101.8 410.4,98.7 404.5,93 "/>
<path class="st0" d="M213.5,25.3l-0.2-1.2c-60.6,9.5-115.1,42.5-151.5,92l0.9,0.7C98.9,67.6,153.1,34.7,213.5,25.3z"/>
<path class="st0" d="M300.1,483.7c-36.3,7.8-73.8,7-109.7-2.5l-0.3,1.2c77.3,20.5,159.7,0.5,218.8-53.5l-0.8-0.9
	C377.7,455.8,340.5,475,300.1,483.7z"/>
</svg>
